<svg width="160" height="160" viewBox="0 0 160 160" fill="none" xmlns="http://www.w3.org/2000/svg">
<g clip-path="url(#clip0_342_142)">
<g clip-path="url(#clip1_342_142)">
<rect x="7" y="9" width="145" height="143" fill="white"/>
<path d="M145 0H15C6.71562 0 0 6.71562 0 15V145C0 153.284 6.71562 160 15 160H145C153.284 160 160 153.284 160 145V15C160 6.71562 153.284 0 145 0ZM35 150H15C12.2384 150 10 147.762 10 145V15C10 12.2384 12.2384 10 15 10H25V85C25 87.7616 27.2384 90 30 90H35V150ZM75 150H45V90H50C52.7616 90 55 87.7616 55 85V10H65V85C65 87.7616 67.2384 90 70 90H75V150ZM115 150H85V90H90C92.7616 90 95 87.7616 95 85V10H105V85C105 87.7616 107.238 90 110 90H115V150ZM150 145C150 147.762 147.762 150 145 150H125V90H130C132.762 90 135 87.7616 135 85V10H145C147.762 10 150 12.2384 150 15V145Z" fill="black"/>
</g>
</g>
<defs>
<clipPath id="clip0_342_142">
<rect width="160" height="160" fill="white"/>
</clipPath>
<clipPath id="clip1_342_142">
<rect width="160" height="160" fill="white"/>
</clipPath>
</defs>
</svg>
